<?xml version="1.0" encoding="UTF-8"?><svg id="Layer_1" xmlns="http://www.w3.org/2000/svg" viewBox="0 0 512 512"><defs><style>.cls-1{fill:#2753d1;fill-rule:evenodd;}</style></defs><path class="cls-1" d="m342.21,61.49c5.05-6.31,14.27-7.33,20.59-2.29l48.82,39.02c3.47,2.78,5.5,6.98,5.5,11.43s-2.02,8.65-5.5,11.43l-48.82,39.02c-6.32,5.05-15.53,4.03-20.59-2.29-5.05-6.31-4.03-15.52,2.29-20.57l16.22-12.96h-153.53c-45.84,0-83,37.13-83,82.93s37.16,82.93,83,82.93h97.64c8.09,0,14.65,6.55,14.65,14.63s-6.56,14.63-14.65,14.63h-97.64c-62.02,0-112.29-50.23-112.29-112.19s50.27-112.19,112.29-112.19h153.53l-16.22-12.96c-6.32-5.05-7.34-14.26-2.29-20.57Zm-149.67,145.73c0-8.08,6.56-14.63,14.65-14.63h97.64c62.02,0,112.29,50.23,112.29,112.2s-50.27,112.19-112.29,112.19h-153.53l16.22,12.96c6.32,5.05,7.34,14.26,2.29,20.57-5.05,6.31-14.27,7.33-20.59,2.28l-48.82-39.02c-3.47-2.78-5.5-6.98-5.5-11.43s2.02-8.65,5.5-11.43l48.82-39.03c6.32-5.05,15.53-4.03,20.59,2.29,5.05,6.31,4.03,15.52-2.29,20.57l-16.22,12.96h153.53c45.84,0,83-37.13,83-82.93s-37.16-82.93-83-82.93h-97.64c-8.09,0-14.65-6.55-14.65-14.63Z"/></svg>